<svg xmlns="http://www.w3.org/2000/svg" viewBox="0 0 265 220"><g fill="#fff"><path d="M178.6 7.2C182.2 8.3 184.6 11.8 184.6 15.6V39.4C184.6 44.2 180.8 48 176.1 48H151.1C148.7 48 146.6 49 145 50.5C144.9 50.6 144.8 50.7 144.7 50.8C143.3 52.3 142.5 54.4 142.5 56.6V94.2C142.5 98.9 138.7 102.8 133.9 102.8H109C104.2 102.8 100.4 106.6 100.4 111.3V149C100.4 153.7 96.6 157.6 91.8 157.6H66.9C62.1 157.6 58.3 161.4 58.3 166.1V188.5C58.3 195.8 49.9 199.9 44.1 195.6C17 175 0 145.2 0 112C0 50.1 59.1 0 132 0C148.4 0 164.1 2.5 178.6 7.2L178.6 7.2Z"/><path d="M230.2 59.5V98.3C230.2 103.2 226.3 107.1 221.4 107.1H195.7C190.8 107.1 186.9 111 186.9 115.9V154.7C186.9 159.6 182.9 163.5 178 163.5H152.3C149.9 163.5 147.7 164.5 146.1 166.1C146 166.2 145.9 166.3 145.8 166.4C144.3 168 143.5 170.1 143.5 172.3V211.1C143.5 216 139.5 219.9 134.7 219.9H109C104.1 219.9 100.1 216 100.1 211.1V172.3C100.1 167.5 104.1 163.5 109 163.5H134.7C139.6 163.5 143.5 159.6 143.5 154.7V115.9C143.5 115.6 143.5 115.3 143.5 115.1C143.5 114.9 143.6 114.8 143.6 114.7C143.6 114.5 143.6 114.4 143.6 114.3C143.6 114.2 143.7 114.2 143.7 114.1C143.7 114 143.7 113.9 143.8 113.8C143.8 113.7 143.8 113.5 143.8 113.4C143.9 113.2 144 112.9 144.1 112.7C144.2 112.5 144.3 112.3 144.4 112.1C144.4 112 144.4 112 144.4 112C144.4 111.9 144.5 111.8 144.6 111.7C144.7 111.4 144.9 111.1 145.1 110.8C145.2 110.7 145.3 110.5 145.4 110.4C145.5 110.3 145.6 110.1 145.8 110C145.9 109.8 146 109.8 146.1 109.7C146.3 109.5 146.5 109.3 146.7 109.1C146.9 108.9 147.2 108.7 147.4 108.6C147.6 108.4 147.9 108.3 148.1 108.1C148.3 108 148.6 107.9 148.8 107.8C149.1 107.6 149.4 107.5 149.7 107.5C149.9 107.4 150.1 107.3 150.3 107.3C150.5 107.2 150.7 107.2 150.9 107.2C151.1 107.1 151.3 107.1 151.5 107.1H178C182.9 107.1 186.8 103.1 186.8 98.3V59.5C186.8 54.6 190.8 50.6 195.7 50.6H221.4C226.3 50.6 230.2 54.6 230.2 59.5H230.2L230.2 59.5Z"/><path d="M264.3 122.1V154.3C264.3 158.4 261.1 161.6 257 161.6H235.7C231.6 161.6 228.3 164.9 228.3 169V201.2C228.3 205.2 225.1 208.5 221 208.5H199.7C195.6 208.5 192.3 205.2 192.3 201.2V169C192.3 164.9 195.6 161.6 199.7 161.6H221C225.1 161.6 228.3 158.4 228.3 154.3V122.1C228.3 118.1 231.6 114.8 235.7 114.8H257C261.1 114.8 264.3 118.1 264.3 122.1Z"/></g></svg>
